<svg id="Layer_1" data-name="Layer 1" xmlns="http://www.w3.org/2000/svg" xmlns:xlink="http://www.w3.org/1999/xlink" viewBox="0 0 125 58.35"><defs><style>.cls-1{fill:none;}.cls-2,.cls-3{fill:#123c63;}.cls-3{fill-rule:evenodd;}.cls-4{clip-path:url(#clip-path);}.cls-5{fill:#157d43;}.cls-6{fill:#b4282e;}</style><clipPath id="clip-path" transform="translate(-27.21 -22.36)"><rect class="cls-1" width="171.48" height="105.43"/></clipPath></defs><title>Gihed Abad Logo</title><rect class="cls-2" x="40.22" y="45.96" width="3.77" height="12.39"/><polygon class="cls-3" points="57.72 50.25 51.6 50.25 51.6 45.96 47.81 45.96 47.81 58.34 51.6 58.34 51.6 54.03 57.72 54.03 57.72 58.34 61.51 58.34 61.51 45.96 57.72 45.96 57.72 50.25"/><g class="cls-4"><path class="cls-3" d="M56,76.68h3.75a1.1,1.1,0,0,1-.42.62,4.78,4.78,0,0,1-2.32.37H54.8a3.88,3.88,0,0,1-2.36-.49,2.23,2.23,0,0,1-.6-1.79V73.7a2.48,2.48,0,0,1,.54-1.89,3.8,3.8,0,0,1,2.42-.51H57a5.15,5.15,0,0,1,2.32.38l.12.13h4.17a3.9,3.9,0,0,0-.28-1.48,2.63,2.63,0,0,0-.91-1.22,4.19,4.19,0,0,0-1.57-.61,15.81,15.81,0,0,0-2.92-.18H53.79c-2.18,0-3.67.32-4.49,1S48.07,71.24,48.07,73v3.31a5.75,5.75,0,0,0,.34,2.11A3.37,3.37,0,0,0,49.5,79.8a3.63,3.63,0,0,0,1.49.67,11.83,11.83,0,0,0,2.8.24H57.9a17.39,17.39,0,0,0,2.92-.2,4.37,4.37,0,0,0,1.57-.63,2.76,2.76,0,0,0,.91-1.21,4.92,4.92,0,0,0,.3-1.93v-.06h0V72.89H56Z" transform="translate(-27.21 -22.36)"/><polygon class="cls-3" points="65.27 58.34 78.97 58.34 78.97 55.34 69.06 55.34 69.06 53.43 78.25 53.43 78.25 50.81 69.06 50.81 69.06 48.94 78.97 48.94 78.97 45.96 65.27 45.96 65.27 58.34"/><path class="cls-3" d="M125,69.29a7,7,0,0,0-4.11-1h-10.9V80.71h10.8c.53,0,4.32.16,5.18-2.26a9,9,0,0,0,.34-1.71V72.47A3.81,3.81,0,0,0,125,69.29m-2.48,6.36a1.84,1.84,0,0,1-.66,1.48,3,3,0,0,1-1.66.54h-6.42V71.34h5.94a3.59,3.59,0,0,1,2.1.52,1.84,1.84,0,0,1,.7,1.62Z" transform="translate(-27.21 -22.36)"/><rect class="cls-2" y="51.37" width="16.01" height="1.36"/><rect class="cls-2" x="103.91" y="51.37" width="16.01" height="1.36"/><path d="M37.94,63,36.8,60.32H31.65L30.51,63H27.59L32.9,50.69h2.65L40.86,63Zm-3.7-8.63-1.55,3.57h3.07Z" transform="translate(-27.21 -22.36)"/><polygon points="22.7 28.33 25.44 28.33 25.44 40.61 22.7 40.61 22.7 35.78 17.82 35.78 17.82 40.61 15.08 40.61 15.08 28.33 17.82 28.33 17.82 33.46 22.7 33.46 22.7 28.33"/><polygon points="39.46 32.88 36.14 39.59 34.51 39.59 31.21 32.88 31.21 40.61 28.46 40.61 28.46 28.33 32.17 28.33 35.33 35.07 38.51 28.33 42.2 28.33 42.2 40.61 39.46 40.61 39.46 32.88"/><polygon points="54.08 28.33 54.08 30.77 47.97 30.77 47.97 33.3 53.47 33.3 53.47 35.64 47.97 35.64 47.97 38.18 54.27 38.18 54.27 40.61 45.23 40.61 45.23 28.33 54.08 28.33"/><path d="M93.3,52.3a5.72,5.72,0,0,1,1.76,4.47,6,6,0,0,1-1.71,4.53A7.25,7.25,0,0,1,88.12,63h-4.2V50.69h4.34a7.21,7.21,0,0,1,5,1.61m-2,7.3a3.59,3.59,0,0,0,1-2.76,3.67,3.67,0,0,0-1-2.79,4.32,4.32,0,0,0-3.1-1H86.66v7.47H88.4a4.08,4.08,0,0,0,2.89-.95" transform="translate(-27.21 -22.36)"/><path d="M106.18,63,105,60.32H99.89L98.75,63H95.83l5.31-12.28h2.65L109.1,63Zm-3.7-8.63-1.55,3.57H104Z" transform="translate(-27.21 -22.36)"/><path d="M115.9,63h-5.38V50.69h4.78a6.84,6.84,0,0,1,2.15.3,3,3,0,0,1,1.36.81,3.12,3.12,0,0,1,.83,2.14,2.5,2.5,0,0,1-.93,2.14,2.89,2.89,0,0,1-.44.31l-.44.2a3.27,3.27,0,0,1,1.82,1,2.87,2.87,0,0,1,.68,1.94,3.34,3.34,0,0,1-.88,2.27A4.61,4.61,0,0,1,115.9,63m-2.64-7.31h1.3a4.54,4.54,0,0,0,1.7-.24,1,1,0,0,0,.55-1.07,1.11,1.11,0,0,0-.51-1.08,4.13,4.13,0,0,0-1.72-.26h-1.32Zm0,5h1.88a4,4,0,0,0,1.77-.29,1.14,1.14,0,0,0,.59-1.14,1.09,1.09,0,0,0-.63-1.12,5.11,5.11,0,0,0-2-.28h-1.62Z" transform="translate(-27.21 -22.36)"/><path d="M131.25,63l-1.14-2.65H125L123.82,63h-2.91l5.3-12.28h2.65L134.17,63Zm-3.7-8.63L126,57.91h3.08Z" transform="translate(-27.21 -22.36)"/><path d="M145,52.3a5.75,5.75,0,0,1,1.75,4.47A6,6,0,0,1,145,61.3Q143.31,63,139.79,63h-4.2V50.69h4.34a7.24,7.24,0,0,1,5,1.61m-2,7.3a3.59,3.59,0,0,0,1-2.76,3.67,3.67,0,0,0-1-2.79,4.3,4.3,0,0,0-3.1-1h-1.53v7.47h1.74A4.06,4.06,0,0,0,143,59.6" transform="translate(-27.21 -22.36)"/><rect class="cls-5" x="114.33" y="7.59" width="4.81" height="15.77"/><path class="cls-5" d="M38.54,33.75H35.78c-1.56,0-2.63.21-3.09.64A3.26,3.26,0,0,0,32,36.81V39a2.83,2.83,0,0,0,.76,2.29,5,5,0,0,0,3,.62h2.76a6,6,0,0,0,3-.49,2,2,0,0,0,.64-1.66v-.15H47v1.1a6.42,6.42,0,0,1-.37,2.48,3.4,3.4,0,0,1-1.13,1.53,5.65,5.65,0,0,1-2,.8,22.39,22.39,0,0,1-3.71.25H34.5a14.87,14.87,0,0,1-3.59-.31,4.81,4.81,0,0,1-1.9-.83,4.61,4.61,0,0,1-1.37-1.84,7.39,7.39,0,0,1-.43-2.69v-4.2c0-2.2.52-3.76,1.59-4.62S31.74,30,34.5,30h5.23a16.65,16.65,0,0,1,3.71.25,5.14,5.14,0,0,1,2,.76,3.14,3.14,0,0,1,1.13,1.56A6,6,0,0,1,47,34.94v1.11H42.15v-.16a1.94,1.94,0,0,0-.64-1.65,6.66,6.66,0,0,0-3-.49" transform="translate(-27.21 -22.36)"/><path class="cls-5" d="M62.64,33.84H55v3.89h7.65A1.57,1.57,0,0,0,64,37.27a2.28,2.28,0,0,0,.4-1.65A2,2,0,0,0,64,34.3a1.65,1.65,0,0,0-1.32-.46M62.83,30c2.48,0,4.19.34,5.08,1.1s1.26,2.09,1.26,4.05a5.61,5.61,0,0,1-.53,3,3,3,0,0,1-2,1.35,3,3,0,0,1,2.51,3v3.24H64.3V43.27A1.45,1.45,0,0,0,63.87,42a2.8,2.8,0,0,0-1.72-.34H55v4H50.15V30Z" transform="translate(-27.21 -22.36)"/><polygon class="cls-5" points="62.54 11.39 49.92 11.39 49.92 13.78 61.62 13.78 61.62 17.11 49.92 17.11 49.92 19.53 62.54 19.53 62.54 23.36 45.12 23.36 45.12 7.59 62.54 7.59 62.54 11.39"/><path class="cls-5" d="M105.27,33.81H97.68v8.06h8.21a3.33,3.33,0,0,0,2.23-.62,2.55,2.55,0,0,0,.71-2V36.5a2.29,2.29,0,0,0-.89-2,4.48,4.48,0,0,0-2.67-.67M106.75,30A9,9,0,0,1,112,31.18a4.79,4.79,0,0,1,1.66,4.07v5.42a5,5,0,0,1-1.32,3.8,6,6,0,0,1-4.2,1.25H92.87V30Z" transform="translate(-27.21 -22.36)"/><polygon class="cls-5" points="93.26 23.36 87.96 23.36 96.57 7.59 102.72 7.59 111.21 23.36 105.91 23.36 99.6 11.35 93.26 23.36"/><path class="cls-6" d="M144.42,25.66l7.13,3c.52.25.92-.42.43-.7-2.3-1.75-4.56-3.52-6.86-5.23a1.91,1.91,0,0,0-2.33,0c-2.29,1.71-4.56,3.48-6.86,5.23-.49.28-.09,1,.43.7l7.14-3a1,1,0,0,1,.92,0" transform="translate(-27.21 -22.36)"/></g></svg>