<svg width="211" height="99" viewBox="0 0 211 99" fill="none" xmlns="http://www.w3.org/2000/svg">
<path d="M74.2626 77.6279H67.8986V98.5431H74.2626V77.6279Z" fill="#123C63"/>
<path fill-rule="evenodd" clip-rule="evenodd" d="M97.4399 84.8697H87.1089V77.6279H80.7111V98.5262H87.1089V91.2506H97.4399V98.5262H103.838V77.6279H97.4399V84.8697Z" fill="#123C63"/>
<path fill-rule="evenodd" clip-rule="evenodd" d="M48.604 91.7404H54.9342C54.8276 92.1614 54.5767 92.5318 54.2252 92.787C52.9921 93.3178 51.646 93.5324 50.3089 93.4116H46.5783C45.1962 93.5658 43.8009 93.2761 42.5944 92.5844C42.2149 92.1855 41.9275 91.7082 41.7525 91.1861C41.5775 90.664 41.5191 90.1099 41.5816 89.5628V86.7099C41.5081 86.1441 41.551 85.5692 41.7078 85.0206C41.8645 84.4719 42.1318 83.9611 42.4932 83.5195C43.7208 82.785 45.1587 82.482 46.5783 82.6586H50.292C51.6295 82.5676 52.9698 82.7871 54.2083 83.3L54.4109 83.5195H61.4502C61.4565 82.6639 61.2959 81.8153 60.9775 81.0212C60.6796 80.1983 60.1452 79.4818 59.4414 78.9617C58.6367 78.4426 57.7351 78.0923 56.7911 77.932C55.161 77.6786 53.5108 77.5769 51.8619 77.6281H44.8733C41.1933 77.6281 38.6781 78.1683 37.2939 79.3162C35.9097 80.4641 35.2176 82.5573 35.2176 85.5283V91.1158C35.1846 92.3285 35.3793 93.5367 35.7915 94.6776C36.1879 95.6033 36.8228 96.4072 37.6315 97.0072C38.3731 97.5704 39.2333 97.9572 40.1467 98.1382C41.7006 98.4605 43.2873 98.5965 44.8733 98.5433H51.8113C53.4609 98.5695 55.1098 98.4565 56.7404 98.2057C57.6847 98.0272 58.585 97.6659 59.3907 97.1422C60.0831 96.6178 60.6152 95.9104 60.9269 95.0996C61.3117 94.0584 61.4839 92.9506 61.4333 91.8417V91.7404V85.3426H48.604V91.7404Z" fill="#123C63"/>
<path fill-rule="evenodd" clip-rule="evenodd" d="M110.185 98.5257H133.311V93.4615H116.583V90.2373H132.096V85.8146H116.583V82.6579H133.311V77.6274H110.185V98.5257Z" fill="#123C63"/>
<path fill-rule="evenodd" clip-rule="evenodd" d="M165.081 79.2654C162.998 78.0007 160.574 77.4111 158.143 77.5773H139.743V98.5431H157.974C158.869 98.5431 165.266 98.8132 166.718 94.7281C167.002 93.7867 167.195 92.82 167.292 91.8415V84.6335C167.37 83.628 167.211 82.6182 166.827 81.6857C166.442 80.7532 165.844 79.9241 165.081 79.2654ZM160.894 90.0015C160.912 90.4754 160.82 90.9469 160.627 91.3799C160.434 91.813 160.144 92.1961 159.78 92.4999C158.957 93.0748 157.982 93.392 156.978 93.4114H146.141V82.7259H156.168C157.412 82.6471 158.649 82.9536 159.713 83.6037C160.123 83.924 160.446 84.3423 160.653 84.8202C160.859 85.298 160.942 85.8201 160.894 86.3384V90.0015Z" fill="#123C63"/>
<path d="M27.0305 86.7612H0.00448608V89.057H27.0305V86.7612Z" fill="#123C63"/>
<path d="M202.438 86.7612H175.412V89.057H202.438V86.7612Z" fill="#123C63"/>
<path d="M18.1174 68.6483L16.193 64.1243H7.49946L5.57507 68.6483H0.645905L9.60955 47.8682H14.0829L23.0466 68.6483H18.1174ZM11.8716 54.0803L9.25506 60.1067H14.4374L11.8716 54.0803Z" fill="black"/>
<path d="M38.3237 47.8682H42.949V68.5977H38.3237V60.4443H30.0859V68.5977H25.4606V47.8682H30.0859V56.528H38.3237V47.8682Z" fill="black"/>
<path d="M66.6157 55.5489L61.0113 66.8758H58.2598L52.6892 55.5489V68.5977H48.047V47.8682H54.3097L59.644 59.2457L65.0121 47.8682H71.241V68.5977H66.6157V55.5489Z" fill="black"/>
<path d="M91.2952 47.8682V51.9871H80.9811V56.2579H90.2655V60.2079H80.9811V64.4956H91.616V68.5977H76.3558V47.8682H91.2952Z" fill="black"/>
<path d="M111.569 50.5849C112.582 51.552 113.372 52.7278 113.885 54.0307C114.398 55.3337 114.622 56.7327 114.54 58.1306C114.617 59.5358 114.399 60.9416 113.902 62.2582C113.405 63.5748 112.639 64.7734 111.653 65.7776C109.202 67.8565 106.03 68.8873 102.825 68.6473H95.7349V47.8671H103.061C106.116 47.6795 109.13 48.6499 111.501 50.5849M108.125 62.9078C108.719 62.294 109.176 61.5617 109.467 60.7587C109.758 59.9558 109.876 59.1005 109.813 58.2488C109.875 57.3895 109.757 56.5269 109.466 55.7159C109.175 54.905 108.719 54.1636 108.125 53.5391C106.668 52.3151 104.79 51.7093 102.892 51.851H100.36V64.4609H103.297C105.07 64.5752 106.817 64.0007 108.176 62.8572" fill="black"/>
<path d="M133.311 68.647L131.319 64.1229H122.693L120.769 68.647H115.84L124.803 47.9175H129.277L138.24 68.647H133.311ZM127.065 54.0789L124.449 60.1053H129.631L127.065 54.0789Z" fill="black"/>
<path d="M149.719 68.6474H140.638V47.8672H148.707C149.936 47.8418 151.161 48.0127 152.336 48.3737C153.21 48.6157 154.003 49.0879 154.632 49.741C155.541 50.7234 156.042 52.015 156.033 53.3534C156.085 54.0379 155.969 54.7246 155.695 55.3541C155.422 55.9836 154.999 56.5368 154.463 56.9659C154.232 57.1631 153.983 57.3383 153.72 57.4892L152.977 57.8268C154.158 58.0408 155.236 58.6333 156.05 59.5149C156.824 60.4273 157.232 61.5939 157.198 62.7898C157.202 64.2085 156.672 65.5768 155.712 66.6217C154.911 67.3601 153.963 67.9219 152.931 68.2709C151.898 68.6198 150.804 68.7481 149.719 68.6474ZM145.263 56.3076H147.457C148.431 56.3563 149.405 56.2188 150.327 55.9024C150.657 55.7429 150.926 55.4804 151.093 55.1546C151.261 54.8287 151.318 54.4572 151.256 54.0962C151.301 53.7419 151.244 53.382 151.091 53.059C150.939 52.736 150.697 52.4633 150.395 52.2731C149.469 51.9223 148.479 51.7727 147.491 51.8342H145.263V56.3076ZM145.263 64.7479H148.436C149.457 64.813 150.478 64.6456 151.424 64.2584C151.764 64.0747 152.041 63.7929 152.219 63.4497C152.397 63.1064 152.467 62.7177 152.42 62.334C152.466 61.9468 152.388 61.5551 152.197 61.2153C152.006 60.8755 151.712 60.6052 151.357 60.4433C150.274 60.0628 149.126 59.9021 147.981 59.9707H145.246L145.263 64.7479Z" fill="black"/>
<path d="M175.631 68.647L173.707 64.1736H165.081L163.089 68.647H158.177L167.123 47.9175H171.597L180.56 68.647H175.631ZM169.385 54.0789L166.769 60.0547H171.968L169.385 54.0789Z" fill="black"/>
<path d="M198.842 50.5853C199.849 51.5559 200.634 52.7327 201.144 54.0351C201.654 55.3375 201.877 56.7347 201.796 58.131C201.864 59.5411 201.636 60.9498 201.127 62.2667C200.619 63.5836 199.84 64.7796 198.842 65.7779C196.94 67.6911 194.009 68.6476 190.047 68.6476H182.957V47.8675H190.284C193.338 47.6849 196.35 48.6547 198.724 50.5853M195.348 62.9082C195.942 62.2944 196.399 61.562 196.69 60.7591C196.981 59.9562 197.099 59.1008 197.036 58.2491C197.097 57.3899 196.979 56.5272 196.688 55.7163C196.398 54.9054 195.941 54.1639 195.348 53.5394C193.892 52.3123 192.013 51.706 190.115 51.8513H187.532V64.4612H190.469C192.275 64.6247 194.071 64.0663 195.466 62.9082" fill="black"/>
<path d="M201.121 12.8564H193.001V39.4773H201.121V12.8564Z" fill="#157D43"/>
<path d="M19.1303 19.2708H14.4713C11.8379 19.2708 10.0316 19.6253 9.25512 20.3512C8.79998 20.921 8.46264 21.5755 8.26268 22.2768C8.06272 22.9781 8.00414 23.7122 8.09035 24.4363V28.1332C8.00609 28.8323 8.07741 29.5413 8.2992 30.2096C8.521 30.8779 8.88777 31.4889 9.37328 31.9989C10.9103 32.869 12.6815 33.2351 14.4375 33.0455H19.0966C20.8276 33.209 22.5717 32.9242 24.1608 32.2183C24.5449 31.8663 24.8423 31.4301 25.0297 30.944C25.2171 30.4578 25.2895 29.9349 25.2411 29.4161V29.1629H33.4114V31.0198C33.4804 32.4427 33.2681 33.8653 32.7868 35.2062C32.4096 36.2311 31.7479 37.127 30.8793 37.7889C29.8509 38.4514 28.7047 38.9099 27.5031 39.1394C25.4309 39.4535 23.3361 39.5946 21.2404 39.5614H12.3105C10.2767 39.6333 8.24173 39.4576 6.25036 39.0381C5.0921 38.8098 3.99757 38.3317 3.04303 37.637C2.02274 36.8131 1.22722 35.7446 0.730371 34.531C0.209111 33.0754 -0.0370267 31.5356 0.00450095 29.9901V22.9002C0.00450095 19.1864 0.882297 16.553 2.68853 15.1013C4.49476 13.6496 7.65146 12.9406 12.3105 12.9406H21.1391C23.2359 12.847 25.3366 12.9885 27.4019 13.3626C28.6048 13.5487 29.7551 13.9858 30.778 14.6455C31.674 15.3018 32.3413 16.2229 32.6855 17.2789C33.1954 18.5497 33.4424 19.9107 33.4114 21.2796V23.1534H25.2243V22.8833C25.278 22.3666 25.208 21.8446 25.0202 21.3603C24.8323 20.876 24.532 20.4433 24.1439 20.098C22.5422 19.4356 20.8089 19.1525 19.0797 19.2708" fill="#157D43"/>
<path d="M59.8128 19.4241H46.9159V25.9907H59.8297C60.2438 26.0503 60.6663 26.0111 61.0624 25.8761C61.4585 25.7411 61.817 25.5143 62.1085 25.2142C62.6838 24.4073 62.9257 23.4096 62.7838 22.4288C62.83 21.6295 62.5907 20.8398 62.1085 20.2006C61.8166 19.916 61.4657 19.6989 61.0807 19.5647C60.6957 19.4305 60.2859 19.3825 59.8803 19.4241M60.1335 12.9419C64.3199 12.9419 67.2065 13.5158 68.7089 14.7988C70.2113 16.0817 70.8359 18.3268 70.8359 21.6355C71.0105 23.3737 70.7008 25.1264 69.9412 26.6997C69.5669 27.2925 69.0735 27.8012 68.4923 28.1935C67.9112 28.5858 67.2549 28.8531 66.565 28.9785C67.7603 29.1763 68.845 29.796 69.6224 30.7252C70.3998 31.6543 70.8184 32.8314 70.8021 34.0428V39.5121H62.615V35.3426C62.6755 34.9532 62.6411 34.555 62.5147 34.1817C62.3883 33.8085 62.1737 33.4712 61.8891 33.1987C61.0077 32.7015 59.9899 32.5003 58.9856 32.6248H46.9159V39.3771H38.7288V12.9419H60.1335Z" fill="#157D43"/>
<path d="M105.576 19.2711H84.273V23.3056H104.023V28.9269H84.273V33.012H105.576V39.4773H76.1702V12.8564H105.576V19.2711Z" fill="#157D43"/>
<path d="M131.775 19.3729H118.963V32.9787H132.822C134.161 33.0912 135.497 32.7199 136.586 31.9321C137.017 31.4884 137.347 30.9572 137.553 30.3746C137.76 29.7921 137.839 29.1718 137.785 28.556V23.9138C137.836 23.2703 137.725 22.6243 137.463 22.0346C137.201 21.4448 136.795 20.9302 136.282 20.5376C134.936 19.697 133.359 19.3013 131.775 19.4066M134.273 12.9413C137.362 12.686 140.454 13.381 143.136 14.9333C144.117 15.7716 144.884 16.8328 145.372 18.0281C145.859 19.2234 146.053 20.518 145.938 21.8037V30.953C146.031 32.1183 145.881 33.2901 145.497 34.3943C145.114 35.4986 144.505 36.5111 143.71 37.3677C141.697 38.9398 139.165 39.6934 136.62 39.4778H110.843V12.9413H134.273Z" fill="#157D43"/>
<path d="M157.434 39.4773H148.487L163.021 12.8564H173.403L187.735 39.4773H178.788L168.136 19.2036L157.434 39.4773Z" fill="#157D43"/>
<path d="M197.863 5.61526L209.899 10.6795C210.777 11.1015 211.452 9.97047 210.625 9.49781C206.742 6.54369 202.927 3.55581 199.045 0.669213C198.481 0.235289 197.79 0 197.078 0C196.367 0 195.675 0.235289 195.111 0.669213C191.246 3.55581 187.414 6.54369 183.531 9.49781C182.704 9.97047 183.379 11.1859 184.257 10.6795L196.31 5.61526C196.55 5.49094 196.816 5.42605 197.087 5.42605C197.357 5.42605 197.623 5.49094 197.863 5.61526Z" fill="#B4282E"/>
</svg>
